<?xml version="1.0" encoding="utf-8"?>
<!-- Generator: Adobe Illustrator 23.0.1, SVG Export Plug-In . SVG Version: 6.00 Build 0)  -->
<svg version="1.1" id="Livello_1" xmlns="http://www.w3.org/2000/svg" xmlns:xlink="http://www.w3.org/1999/xlink" x="0px" y="0px"
	 viewBox="0 0 30 30" style="enable-background:new 0 0 30 30;" xml:space="preserve">
<style type="text/css">
	.st0{fill:#FFFFFF;}
</style>
<g>
	<path class="st0" d="M28,9.2l-1.3-1.3c-0.2-0.2-0.4-0.3-0.6-0.3s-0.4,0.1-0.6,0.3L15,18.2L4.6,7.9C4.4,7.7,4.2,7.6,4,7.6
		c-0.2,0-0.4,0.1-0.6,0.3L2,9.2C1.8,9.4,1.8,9.6,1.8,9.8s0.1,0.4,0.3,0.6l12.4,12.2c0.2,0.2,0.4,0.3,0.6,0.3s0.4-0.1,0.6-0.3
		L28,10.4c0.2-0.2,0.3-0.4,0.3-0.6C28.2,9.6,28.2,9.4,28,9.2z"/>
</g>
</svg>
